<mxfile host="app.diagrams.net" agent="Mozilla/5.0 (Windows NT 10.0; Win64; x64) AppleWebKit/537.36 (KHTML, like Gecko) Chrome/133.0.0.0 Safari/537.36 Edg/133.0.0.0" version="26.0.14">
  <diagram name="Страница — 1" id="y9vs90uOp_BDJF61NaWc">
    <mxGraphModel dx="983" dy="544" grid="1" gridSize="10" guides="1" tooltips="1" connect="1" arrows="1" fold="1" page="1" pageScale="1" pageWidth="827" pageHeight="1169" math="0" shadow="0">
      <root>
        <mxCell id="0" />
        <mxCell id="1" parent="0" />
        <mxCell id="fZiavdN6Dz8KueAMX91e-13" value="" style="rounded=0;whiteSpace=wrap;html=1;" vertex="1" parent="1">
          <mxGeometry x="140" y="210" width="400" height="250" as="geometry" />
        </mxCell>
        <mxCell id="fZiavdN6Dz8KueAMX91e-16" value="Auth" style="ellipse;whiteSpace=wrap;html=1;aspect=fixed;" vertex="1" parent="1">
          <mxGeometry x="465" y="215" width="60" height="60" as="geometry" />
        </mxCell>
        <mxCell id="fZiavdN6Dz8KueAMX91e-17" value="Просмотр&amp;nbsp;&lt;div&gt;курсов&lt;/div&gt;" style="ellipse;whiteSpace=wrap;html=1;aspect=fixed;" vertex="1" parent="1">
          <mxGeometry x="465" y="280" width="60" height="60" as="geometry" />
        </mxCell>
        <mxCell id="fZiavdN6Dz8KueAMX91e-18" value="Student" style="shape=umlActor;verticalLabelPosition=bottom;verticalAlign=top;html=1;outlineConnect=0;" vertex="1" parent="1">
          <mxGeometry x="600" y="195" width="50" height="100" as="geometry" />
        </mxCell>
        <mxCell id="fZiavdN6Dz8KueAMX91e-20" value="" style="endArrow=none;html=1;rounded=0;entryX=0.968;entryY=0.596;entryDx=0;entryDy=0;entryPerimeter=0;exitX=0.5;exitY=0.5;exitDx=0;exitDy=0;exitPerimeter=0;" edge="1" parent="1" source="fZiavdN6Dz8KueAMX91e-18" target="fZiavdN6Dz8KueAMX91e-16">
          <mxGeometry width="50" height="50" relative="1" as="geometry">
            <mxPoint x="380" y="280" as="sourcePoint" />
            <mxPoint x="430" y="230" as="targetPoint" />
          </mxGeometry>
        </mxCell>
        <mxCell id="fZiavdN6Dz8KueAMX91e-21" value="" style="endArrow=none;html=1;rounded=0;exitX=1;exitY=0.5;exitDx=0;exitDy=0;entryX=0.5;entryY=0.5;entryDx=0;entryDy=0;entryPerimeter=0;" edge="1" parent="1" source="fZiavdN6Dz8KueAMX91e-17" target="fZiavdN6Dz8KueAMX91e-18">
          <mxGeometry width="50" height="50" relative="1" as="geometry">
            <mxPoint x="380" y="280" as="sourcePoint" />
            <mxPoint x="430" y="230" as="targetPoint" />
          </mxGeometry>
        </mxCell>
        <mxCell id="fZiavdN6Dz8KueAMX91e-23" value="Просмотр&lt;div&gt;Успеваем.&lt;/div&gt;" style="ellipse;whiteSpace=wrap;html=1;aspect=fixed;" vertex="1" parent="1">
          <mxGeometry x="465" y="360" width="60" height="60" as="geometry" />
        </mxCell>
        <mxCell id="fZiavdN6Dz8KueAMX91e-25" value="" style="endArrow=none;dashed=1;html=1;rounded=0;entryX=0.5;entryY=1;entryDx=0;entryDy=0;exitX=0.5;exitY=0;exitDx=0;exitDy=0;" edge="1" parent="1" source="fZiavdN6Dz8KueAMX91e-23" target="fZiavdN6Dz8KueAMX91e-17">
          <mxGeometry width="50" height="50" relative="1" as="geometry">
            <mxPoint x="380" y="280" as="sourcePoint" />
            <mxPoint x="430" y="230" as="targetPoint" />
          </mxGeometry>
        </mxCell>
        <mxCell id="fZiavdN6Dz8KueAMX91e-27" value="Admin" style="shape=umlActor;verticalLabelPosition=bottom;verticalAlign=top;html=1;outlineConnect=0;" vertex="1" parent="1">
          <mxGeometry x="20" y="195" width="50" height="100" as="geometry" />
        </mxCell>
        <mxCell id="fZiavdN6Dz8KueAMX91e-29" value="Auth" style="ellipse;whiteSpace=wrap;html=1;aspect=fixed;" vertex="1" parent="1">
          <mxGeometry x="160" y="220" width="60" height="60" as="geometry" />
        </mxCell>
        <mxCell id="fZiavdN6Dz8KueAMX91e-30" value="" style="endArrow=none;html=1;rounded=0;entryX=0;entryY=0.5;entryDx=0;entryDy=0;exitX=0.5;exitY=0.5;exitDx=0;exitDy=0;exitPerimeter=0;" edge="1" parent="1" source="fZiavdN6Dz8KueAMX91e-27" target="fZiavdN6Dz8KueAMX91e-29">
          <mxGeometry width="50" height="50" relative="1" as="geometry">
            <mxPoint x="400" y="280" as="sourcePoint" />
            <mxPoint x="450" y="230" as="targetPoint" />
          </mxGeometry>
        </mxCell>
        <mxCell id="fZiavdN6Dz8KueAMX91e-32" value="Управ.&lt;div&gt;Пользов.&lt;/div&gt;" style="ellipse;whiteSpace=wrap;html=1;aspect=fixed;" vertex="1" parent="1">
          <mxGeometry x="160" y="290" width="60" height="60" as="geometry" />
        </mxCell>
        <mxCell id="fZiavdN6Dz8KueAMX91e-35" value="Управ.&lt;div&gt;Курсами&lt;/div&gt;" style="ellipse;whiteSpace=wrap;html=1;aspect=fixed;" vertex="1" parent="1">
          <mxGeometry x="160" y="365" width="60" height="60" as="geometry" />
        </mxCell>
        <mxCell id="fZiavdN6Dz8KueAMX91e-36" value="" style="endArrow=none;html=1;rounded=0;entryX=0;entryY=0.5;entryDx=0;entryDy=0;exitX=0.5;exitY=0.5;exitDx=0;exitDy=0;exitPerimeter=0;" edge="1" parent="1" source="fZiavdN6Dz8KueAMX91e-27" target="fZiavdN6Dz8KueAMX91e-35">
          <mxGeometry width="50" height="50" relative="1" as="geometry">
            <mxPoint x="400" y="280" as="sourcePoint" />
            <mxPoint x="450" y="230" as="targetPoint" />
          </mxGeometry>
        </mxCell>
        <mxCell id="fZiavdN6Dz8KueAMX91e-39" value="Professor" style="shape=umlActor;verticalLabelPosition=bottom;verticalAlign=top;html=1;outlineConnect=0;" vertex="1" parent="1">
          <mxGeometry x="305" y="60" width="50" height="100" as="geometry" />
        </mxCell>
        <mxCell id="fZiavdN6Dz8KueAMX91e-40" value="Auth" style="ellipse;whiteSpace=wrap;html=1;aspect=fixed;" vertex="1" parent="1">
          <mxGeometry x="280" y="220" width="60" height="60" as="geometry" />
        </mxCell>
        <mxCell id="fZiavdN6Dz8KueAMX91e-41" value="" style="endArrow=none;html=1;rounded=0;exitX=0.5;exitY=0;exitDx=0;exitDy=0;entryX=0.5;entryY=0.5;entryDx=0;entryDy=0;entryPerimeter=0;" edge="1" parent="1" source="fZiavdN6Dz8KueAMX91e-40" target="fZiavdN6Dz8KueAMX91e-39">
          <mxGeometry width="50" height="50" relative="1" as="geometry">
            <mxPoint x="400" y="280" as="sourcePoint" />
            <mxPoint x="310" y="150" as="targetPoint" />
          </mxGeometry>
        </mxCell>
        <mxCell id="fZiavdN6Dz8KueAMX91e-42" value="Управ.&lt;div&gt;Курсом.&lt;/div&gt;" style="ellipse;whiteSpace=wrap;html=1;aspect=fixed;" vertex="1" parent="1">
          <mxGeometry x="355" y="220" width="60" height="60" as="geometry" />
        </mxCell>
        <mxCell id="fZiavdN6Dz8KueAMX91e-43" value="" style="endArrow=none;html=1;rounded=0;entryX=0.5;entryY=0.5;entryDx=0;entryDy=0;entryPerimeter=0;exitX=0.5;exitY=0;exitDx=0;exitDy=0;" edge="1" parent="1" source="fZiavdN6Dz8KueAMX91e-42" target="fZiavdN6Dz8KueAMX91e-39">
          <mxGeometry width="50" height="50" relative="1" as="geometry">
            <mxPoint x="400" y="280" as="sourcePoint" />
            <mxPoint x="450" y="230" as="targetPoint" />
          </mxGeometry>
        </mxCell>
        <mxCell id="fZiavdN6Dz8KueAMX91e-45" value="Управ.&lt;div&gt;Оценками&lt;/div&gt;" style="ellipse;whiteSpace=wrap;html=1;aspect=fixed;" vertex="1" parent="1">
          <mxGeometry x="355" y="305" width="60" height="60" as="geometry" />
        </mxCell>
        <mxCell id="fZiavdN6Dz8KueAMX91e-48" value="" style="endArrow=none;dashed=1;html=1;rounded=0;entryX=0.5;entryY=1;entryDx=0;entryDy=0;exitX=0.5;exitY=0;exitDx=0;exitDy=0;" edge="1" parent="1" source="fZiavdN6Dz8KueAMX91e-45" target="fZiavdN6Dz8KueAMX91e-42">
          <mxGeometry width="50" height="50" relative="1" as="geometry">
            <mxPoint x="400" y="280" as="sourcePoint" />
            <mxPoint x="450" y="230" as="targetPoint" />
          </mxGeometry>
        </mxCell>
        <mxCell id="fZiavdN6Dz8KueAMX91e-51" value="" style="endArrow=none;html=1;rounded=0;entryX=0;entryY=0.5;entryDx=0;entryDy=0;exitX=0.5;exitY=0.5;exitDx=0;exitDy=0;exitPerimeter=0;" edge="1" parent="1" source="fZiavdN6Dz8KueAMX91e-27" target="fZiavdN6Dz8KueAMX91e-32">
          <mxGeometry width="50" height="50" relative="1" as="geometry">
            <mxPoint x="400" y="280" as="sourcePoint" />
            <mxPoint x="450" y="230" as="targetPoint" />
          </mxGeometry>
        </mxCell>
        <mxCell id="fZiavdN6Dz8KueAMX91e-52" value="Управ.&lt;div&gt;Успеваем.&lt;/div&gt;" style="ellipse;whiteSpace=wrap;html=1;aspect=fixed;" vertex="1" parent="1">
          <mxGeometry x="230" y="390" width="60" height="60" as="geometry" />
        </mxCell>
        <mxCell id="fZiavdN6Dz8KueAMX91e-53" value="" style="endArrow=none;dashed=1;html=1;rounded=0;entryX=0;entryY=0.5;entryDx=0;entryDy=0;exitX=1;exitY=0.5;exitDx=0;exitDy=0;" edge="1" parent="1" source="fZiavdN6Dz8KueAMX91e-35" target="fZiavdN6Dz8KueAMX91e-52">
          <mxGeometry width="50" height="50" relative="1" as="geometry">
            <mxPoint x="400" y="280" as="sourcePoint" />
            <mxPoint x="450" y="230" as="targetPoint" />
          </mxGeometry>
        </mxCell>
        <mxCell id="fZiavdN6Dz8KueAMX91e-54" value="Успеваемость студентов" style="text;html=1;align=center;verticalAlign=middle;whiteSpace=wrap;rounded=0;" vertex="1" parent="1">
          <mxGeometry x="400" y="180" width="60" height="30" as="geometry" />
        </mxCell>
        <mxCell id="fZiavdN6Dz8KueAMX91e-55" value="" style="endArrow=none;html=1;rounded=0;entryX=0.284;entryY=0.01;entryDx=0;entryDy=0;entryPerimeter=0;exitX=0.418;exitY=1.003;exitDx=0;exitDy=0;exitPerimeter=0;" edge="1" parent="1" source="fZiavdN6Dz8KueAMX91e-13" target="fZiavdN6Dz8KueAMX91e-13">
          <mxGeometry width="50" height="50" relative="1" as="geometry">
            <mxPoint x="400" y="280" as="sourcePoint" />
            <mxPoint x="450" y="230" as="targetPoint" />
          </mxGeometry>
        </mxCell>
        <mxCell id="fZiavdN6Dz8KueAMX91e-56" value="" style="endArrow=none;html=1;rounded=0;entryX=0.75;entryY=0;entryDx=0;entryDy=0;exitX=0.75;exitY=1;exitDx=0;exitDy=0;" edge="1" parent="1" source="fZiavdN6Dz8KueAMX91e-13" target="fZiavdN6Dz8KueAMX91e-13">
          <mxGeometry width="50" height="50" relative="1" as="geometry">
            <mxPoint x="400" y="280" as="sourcePoint" />
            <mxPoint x="450" y="230" as="targetPoint" />
          </mxGeometry>
        </mxCell>
        <mxCell id="fZiavdN6Dz8KueAMX91e-59" value="CRUD" style="ellipse;whiteSpace=wrap;html=1;aspect=fixed;" vertex="1" parent="1">
          <mxGeometry x="230" y="320" width="45" height="45" as="geometry" />
        </mxCell>
        <mxCell id="fZiavdN6Dz8KueAMX91e-61" value="" style="endArrow=none;dashed=1;html=1;rounded=0;entryX=1;entryY=0.5;entryDx=0;entryDy=0;exitX=0;exitY=0.5;exitDx=0;exitDy=0;" edge="1" parent="1" source="fZiavdN6Dz8KueAMX91e-59" target="fZiavdN6Dz8KueAMX91e-32">
          <mxGeometry width="50" height="50" relative="1" as="geometry">
            <mxPoint x="400" y="280" as="sourcePoint" />
            <mxPoint x="450" y="230" as="targetPoint" />
          </mxGeometry>
        </mxCell>
      </root>
    </mxGraphModel>
  </diagram>
</mxfile>
